<svg viewBox="-460,-240,920,480" xmlns="http://www.w3.org/2000/svg" xmlns:xlink="http://www.w3.org/1999/xlink"><g stroke="#999" stroke-opacity="0.6" stroke-linecap="round"><line stroke-width="1" x1="-56.166558831521606" y1="26.758689670209815" x2="-19.560867654525914" y2="-6.291794932869272"/><line stroke-width="1" x1="118.00733256426244" y1="35.18362021723918" x2="163.3311919563637" y2="47.382869310832966"/><line stroke-width="1" x1="-58.277233409365564" y1="-100.90508797664964" x2="163.3311919563637" y2="47.382869310832966"/><line stroke-width="1" x1="-19.560867654525914" y1="-6.291794932869272" x2="163.3311919563637" y2="47.382869310832966"/><line stroke-width="5.0990195135927845" x1="-58.277233409365564" y1="-100.90508797664964" x2="-19.560867654525914" y2="-6.291794932869272"/><line stroke-width="1" x1="-56.166558831521606" y1="26.758689670209815" x2="163.3311919563637" y2="47.382869310832966"/><line stroke-width="1" x1="57.93108658159201" y1="-39.651675773156995" x2="-56.166558831521606" y2="26.758689670209815"/><line stroke-width="1" x1="57.93108658159201" y1="-39.651675773156995" x2="163.3311919563637" y2="47.382869310832966"/><line stroke-width="2.8284271247461903" x1="-56.166558831521606" y1="26.758689670209815" x2="-71.81640338584766" y2="118.91045982733519"/><line stroke-width="1.4142135623730951" x1="-71.81640338584766" y1="118.91045982733519" x2="156.7214217362972" y2="19.637791350580095"/><line stroke-width="1" x1="-56.166558831521606" y1="26.758689670209815" x2="156.7214217362972" y2="19.637791350580095"/><line stroke-width="1.7320508075688772" x1="-135.8158225509708" y1="1.4156611528931675" x2="-44.97821475148521" y2="66.62263374481965"/><line stroke-width="1" x1="-44.97821475148521" y1="66.62263374481965" x2="178.92812913540064" y2="20.819371013415076"/><line stroke-width="1.7320508075688772" x1="-135.8158225509708" y1="1.4156611528931675" x2="178.92812913540064" y2="20.819371013415076"/><line stroke-width="4.69041575982343" x1="28.305153646667005" y1="84.78499919541616" x2="-19.560867654525914" y2="-6.291794932869272"/><line stroke-width="3.4641016151377544" x1="28.305153646667005" y1="84.78499919541616" x2="-58.277233409365564" y2="-100.90508797664964"/><line stroke-width="1.4142135623730951" x1="28.305153646667005" y1="84.78499919541616" x2="162.99422067422825" y2="136.57854384272153"/><line stroke-width="1.4142135623730951" x1="-85.19654635021384" y1="-41.98889552396875" x2="-19.560867654525914" y2="-6.291794932869272"/><line stroke-width="1.4142135623730951" x1="-85.19654635021384" y1="-41.98889552396875" x2="-58.277233409365564" y2="-100.90508797664964"/><line stroke-width="1.4142135623730951" x1="-85.19654635021384" y1="-41.98889552396875" x2="28.305153646667005" y2="84.78499919541616"/><line stroke-width="2.23606797749979" x1="-44.97821475148521" y1="66.62263374481965" x2="-56.166558831521606" y2="26.758689670209815"/><line stroke-width="1.7320508075688772" x1="-44.97821475148521" y1="66.62263374481965" x2="-71.81640338584766" y2="118.91045982733519"/><line stroke-width="1.4142135623730951" x1="-56.166558831521606" y1="26.758689670209815" x2="178.92812913540064" y2="20.819371013415076"/><line stroke-width="1" x1="28.305153646667005" y1="84.78499919541616" x2="178.92812913540064" y2="20.819371013415076"/><line stroke-width="2.6457513110645907" x1="-135.8158225509708" y1="1.4156611528931675" x2="28.305153646667005" y2="84.78499919541616"/><line stroke-width="1.4142135623730951" x1="-19.560867654525914" y1="-6.291794932869272" x2="178.92812913540064" y2="20.819371013415076"/><line stroke-width="3" x1="-135.8158225509708" y1="1.4156611528931675" x2="-19.560867654525914" y2="-6.291794932869272"/><line stroke-width="2.6457513110645907" x1="-135.8158225509708" y1="1.4156611528931675" x2="-102.36739364407373" y2="24.855079653277176"/><line stroke-width="4" x1="-102.36739364407373" y1="24.855079653277176" x2="-19.560867654525914" y2="-6.291794932869272"/><line stroke-width="1" x1="-102.36739364407373" y1="24.855079653277176" x2="178.92812913540064" y2="20.819371013415076"/><line stroke-width="2.6457513110645907" x1="-135.8158225509708" y1="1.4156611528931675" x2="-58.277233409365564" y2="-100.90508797664964"/><line stroke-width="1.7320508075688772" x1="-58.277233409365564" y1="-100.90508797664964" x2="120.31231664571301" y2="-62.880491348152894"/><line stroke-width="1" x1="28.305153646667005" y1="84.78499919541616" x2="120.31231664571301" y2="-62.880491348152894"/><line stroke-width="1.4142135623730951" x1="-19.560867654525914" y1="-6.291794932869272" x2="120.31231664571301" y2="-62.880491348152894"/><line stroke-width="1.4142135623730951" x1="-135.8158225509708" y1="1.4156611528931675" x2="120.31231664571301" y2="-62.880491348152894"/><line stroke-width="3" x1="28.305153646667005" y1="84.78499919541616" x2="-102.36739364407373" y2="24.855079653277176"/><line stroke-width="2.449489742783178" x1="-19.560867654525914" y1="-6.291794932869272" x2="155.71500766351758" y2="71.40101114558716"/><line stroke-width="2" x1="-99.439768126135" y1="-66.37514431588333" x2="155.71500766351758" y2="71.40101114558716"/><line stroke-width="1.7320508075688772" x1="-102.36739364407373" y1="24.855079653277176" x2="155.71500766351758" y2="71.40101114558716"/><line stroke-width="4.69041575982343" x1="-99.439768126135" y1="-66.37514431588333" x2="-19.560867654525914" y2="-6.291794932869272"/><line stroke-width="4" x1="-99.439768126135" y1="-66.37514431588333" x2="-102.36739364407373" y2="24.855079653277176"/><line stroke-width="1.4142135623730951" x1="28.305153646667005" y1="84.78499919541616" x2="-21.706741084798768" y2="-155.6300081871466"/><line stroke-width="1.4142135623730951" x1="-99.439768126135" y1="-66.37514431588333" x2="-21.706741084798768" y2="-155.6300081871466"/><line stroke-width="1.4142135623730951" x1="-19.560867654525914" y1="-6.291794932869272" x2="-21.706741084798768" y2="-155.6300081871466"/><line stroke-width="1.4142135623730951" x1="-102.36739364407373" y1="24.855079653277176" x2="-21.706741084798768" y2="-155.6300081871466"/><line stroke-width="2.8284271247461903" x1="-99.439768126135" y1="-66.37514431588333" x2="28.305153646667005" y2="84.78499919541616"/><line stroke-width="1.4142135623730951" x1="-99.439768126135" y1="-66.37514431588333" x2="-150.75191137414282" y2="60.54318082997318"/><line stroke-width="1.4142135623730951" x1="-150.75191137414282" y1="60.54318082997318" x2="-19.560867654525914" y2="-6.291794932869272"/><line stroke-width="1" x1="-150.75191137414282" y1="60.54318082997318" x2="-102.36739364407373" y2="24.855079653277176"/><line stroke-width="2.6457513110645907" x1="-99.439768126135" y1="-66.37514431588333" x2="154.47476084024245" y2="-113.7662981422659"/><line stroke-width="1.7320508075688772" x1="28.305153646667005" y1="84.78499919541616" x2="154.47476084024245" y2="-113.7662981422659"/><line stroke-width="2.8284271247461903" x1="-19.560867654525914" y1="-6.291794932869272" x2="154.47476084024245" y2="-113.7662981422659"/><line stroke-width="2.23606797749979" x1="-102.36739364407373" y1="24.855079653277176" x2="154.47476084024245" y2="-113.7662981422659"/><line stroke-width="1.7320508075688772" x1="-99.439768126135" y1="-66.37514431588333" x2="6.166648758821651" y2="-21.49916842216878"/><line stroke-width="1.4142135623730951" x1="6.166648758821651" y1="-21.49916842216878" x2="-102.36739364407373" y2="24.855079653277176"/><line stroke-width="1" x1="-58.277233409365564" y1="-100.90508797664964" x2="178.92812913540064" y2="20.819371013415076"/><line stroke-width="1.7320508075688772" x1="-174.5324630045724" y1="104.75737362755153" x2="-44.97821475148521" y2="66.62263374481965"/><line stroke-width="1.7320508075688772" x1="-99.439768126135" y1="-66.37514431588333" x2="1.9077183715012613" y2="-76.21741551678093"/><line stroke-width="1.4142135623730951" x1="-99.439768126135" y1="-66.37514431588333" x2="129.74727744654524" y2="118.58923536970318"/><line stroke-width="1" x1="1.9077183715012613" y1="-76.21741551678093" x2="129.74727744654524" y2="118.58923536970318"/><line stroke-width="1" x1="28.305153646667005" y1="84.78499919541616" x2="1.9077183715012613" y2="-76.21741551678093"/><line stroke-width="1.4142135623730951" x1="1.9077183715012613" y1="-76.21741551678093" x2="-19.560867654525914" y2="-6.291794932869272"/><line stroke-width="1" x1="28.305153646667005" y1="84.78499919541616" x2="129.74727744654524" y2="118.58923536970318"/><line stroke-width="1.4142135623730951" x1="-19.560867654525914" y1="-6.291794932869272" x2="129.74727744654524" y2="118.58923536970318"/><line stroke-width="2.23606797749979" x1="-99.439768126135" y1="-66.37514431588333" x2="-58.277233409365564" y2="-100.90508797664964"/><line stroke-width="1" x1="-58.277233409365564" y1="-100.90508797664964" x2="154.47476084024245" y2="-113.7662981422659"/><line stroke-width="1" x1="6.166648758821651" y1="-21.49916842216878" x2="155.71500766351758" y2="71.40101114558716"/><line stroke-width="1" x1="1.9077183715012613" y1="-76.21741551678093" x2="155.71500766351758" y2="71.40101114558716"/><line stroke-width="1" x1="6.166648758821651" y1="-21.49916842216878" x2="-19.560867654525914" y2="-6.291794932869272"/><line stroke-width="1" x1="6.166648758821651" y1="-21.49916842216878" x2="1.9077183715012613" y2="-76.21741551678093"/><line stroke-width="1" x1="1.9077183715012613" y1="-76.21741551678093" x2="-102.36739364407373" y2="24.855079653277176"/><line stroke-width="1" x1="-132.2327880081245" y1="-53.36165044791258" x2="18.583380775300952" y2="-110.58487259818048"/><line stroke-width="1" x1="18.583380775300952" y1="-110.58487259818048" x2="154.47476084024245" y2="-113.7662981422659"/><line stroke-width="1" x1="-21.706741084798768" y1="-155.6300081871466" x2="154.47476084024245" y2="-113.7662981422659"/><line stroke-width="1" x1="-99.439768126135" y1="-66.37514431588333" x2="18.583380775300952" y2="-110.58487259818048"/><line stroke-width="1" x1="18.583380775300952" y1="-110.58487259818048" x2="28.305153646667005" y2="84.78499919541616"/><line stroke-width="1" x1="18.583380775300952" y1="-110.58487259818048" x2="-102.36739364407373" y2="24.855079653277176"/><line stroke-width="1" x1="18.583380775300952" y1="-110.58487259818048" x2="-21.706741084798768" y2="-155.6300081871466"/><line stroke-width="1" x1="18.583380775300952" y1="-110.58487259818048" x2="-19.560867654525914" y2="-6.291794932869272"/><line stroke-width="1.4142135623730951" x1="-132.2327880081245" y1="-53.36165044791258" x2="28.305153646667005" y2="84.78499919541616"/><line stroke-width="1" x1="-132.2327880081245" y1="-53.36165044791258" x2="-102.36739364407373" y2="24.855079653277176"/><line stroke-width="1" x1="-92.01591471286415" y1="119.12861698041813" x2="-19.560867654525914" y2="-6.291794932869272"/><line stroke-width="1" x1="-99.439768126135" y1="-66.37514431588333" x2="-92.01591471286415" y2="119.12861698041813"/><line stroke-width="1" x1="-92.01591471286415" y1="119.12861698041813" x2="129.74727744654524" y2="118.58923536970318"/><line stroke-width="1" x1="1.9077183715012613" y1="-76.21741551678093" x2="154.47476084024245" y2="-113.7662981422659"/><line stroke-width="1.4142135623730951" x1="-99.439768126135" y1="-66.37514431588333" x2="-135.8158225509708" y2="1.4156611528931675"/><line stroke-width="2" x1="-99.439768126135" y1="-66.37514431588333" x2="120.31231664571301" y2="-62.880491348152894"/><line stroke-width="1.4142135623730951" x1="-44.97821475148521" y1="66.62263374481965" x2="166.75767577126925" y2="-55.7155718421008"/><line stroke-width="1.4142135623730951" x1="-44.97821475148521" y1="66.62263374481965" x2="28.305153646667005" y2="84.78499919541616"/><line stroke-width="1" x1="-44.97821475148521" y1="66.62263374481965" x2="-19.560867654525914" y2="-6.291794932869272"/><line stroke-width="1" x1="28.305153646667005" y1="84.78499919541616" x2="166.75767577126925" y2="-55.7155718421008"/><line stroke-width="1" x1="-19.560867654525914" y1="-6.291794932869272" x2="166.75767577126925" y2="-55.7155718421008"/><line stroke-width="1.4142135623730951" x1="-16.601933911029953" y1="40.70610223089231" x2="-19.560867654525914" y2="-6.291794932869272"/><line stroke-width="1.4142135623730951" x1="-193.08855801142883" y1="-19.309062259472462" x2="-19.560867654525914" y2="-6.291794932869272"/><line stroke-width="1.4142135623730951" x1="-19.560867654525914" y1="-6.291794932869272" x2="151.114130693076" y2="-31.035984655468535"/><line stroke-width="1" x1="-19.560867654525914" y1="-6.291794932869272" x2="-41.0109217954552" y2="114.50070255134774"/><line stroke-width="1.7320508075688772" x1="-193.08855801142883" y1="-19.309062259472462" x2="-16.601933911029953" y2="40.70610223089231"/><line stroke-width="2" x1="-16.601933911029953" y1="40.70610223089231" x2="151.114130693076" y2="-31.035984655468535"/><line stroke-width="1.7320508075688772" x1="-99.439768126135" y1="-66.37514431588333" x2="-16.601933911029953" y2="40.70610223089231"/><line stroke-width="1" x1="-16.601933911029953" y1="40.70610223089231" x2="-41.0109217954552" y2="114.50070255134774"/><line stroke-width="1.7320508075688772" x1="-193.08855801142883" y1="-19.309062259472462" x2="151.114130693076" y2="-31.035984655468535"/><line stroke-width="1.4142135623730951" x1="-99.439768126135" y1="-66.37514431588333" x2="-193.08855801142883" y2="-19.309062259472462"/><line stroke-width="1" x1="-193.08855801142883" y1="-19.309062259472462" x2="-41.0109217954552" y2="114.50070255134774"/><line stroke-width="1.7320508075688772" x1="-99.439768126135" y1="-66.37514431588333" x2="151.114130693076" y2="-31.035984655468535"/><line stroke-width="1" x1="-41.0109217954552" y1="114.50070255134774" x2="151.114130693076" y2="-31.035984655468535"/><line stroke-width="1" x1="-99.439768126135" y1="-66.37514431588333" x2="-41.0109217954552" y2="114.50070255134774"/><line stroke-width="1" x1="-6.412082629776109" y1="-109.56683855272088" x2="-44.97821475148521" y2="66.62263374481965"/><line stroke-width="1" x1="-6.412082629776109" y1="-109.56683855272088" x2="166.75767577126925" y2="-55.7155718421008"/><line stroke-width="1.7320508075688772" x1="-58.277233409365564" y1="-100.90508797664964" x2="151.114130693076" y2="-31.035984655468535"/><line stroke-width="1.4142135623730951" x1="-16.601933911029953" y1="40.70610223089231" x2="-58.277233409365564" y2="-100.90508797664964"/><line stroke-width="1" x1="-193.08855801142883" y1="-19.309062259472462" x2="-58.277233409365564" y2="-100.90508797664964"/><line stroke-width="1.4142135623730951" x1="-85.19654635021384" y1="-41.98889552396875" x2="-102.36739364407373" y2="24.855079653277176"/><line stroke-width="1.7320508075688772" x1="-174.5324630045724" y1="104.75737362755153" x2="-56.166558831521606" y2="26.758689670209815"/><line stroke-width="1" x1="-99.439768126135" y1="-66.37514431588333" x2="-85.19654635021384" y2="-41.98889552396875"/><line stroke-width="1" x1="-85.19654635021384" y1="-41.98889552396875" x2="-135.8158225509708" y2="1.4156611528931675"/><line stroke-width="1" x1="-58.277233409365564" y1="-100.90508797664964" x2="-102.36739364407373" y2="24.855079653277176"/><line stroke-width="1" x1="-44.97821475148521" y1="66.62263374481965" x2="19.287539780935916" y2="63.81344975924128"/><line stroke-width="1" x1="19.287539780935916" y1="63.81344975924128" x2="-56.166558831521606" y2="26.758689670209815"/><line stroke-width="1" x1="-174.5324630045724" y1="104.75737362755153" x2="19.287539780935916" y2="63.81344975924128"/><line stroke-width="1" x1="-174.5324630045724" y1="104.75737362755153" x2="-71.81640338584766" y2="118.91045982733519"/><line stroke-width="2" x1="-167.79650719262025" y1="-58.85065917242368" x2="120.31231664571301" y2="-62.880491348152894"/><line stroke-width="1.4142135623730951" x1="-99.439768126135" y1="-66.37514431588333" x2="-167.79650719262025" y2="-58.85065917242368"/><line stroke-width="1" x1="19.287539780935916" y1="63.81344975924128" x2="28.305153646667005" y2="84.78499919541616"/><line stroke-width="1" x1="-56.166558831521606" y1="26.758689670209815" x2="-102.36739364407373" y2="24.855079653277176"/><line stroke-width="1" x1="57.93108658159201" y1="-39.651675773156995" x2="156.7214217362972" y2="19.637791350580095"/><line stroke-width="1.4142135623730951" x1="-119.42622765051507" y1="-152.22358573312175" x2="-167.79650719262025" y2="-58.85065917242368"/><line stroke-width="1.4142135623730951" x1="-119.42622765051507" y1="-152.22358573312175" x2="120.31231664571301" y2="-62.880491348152894"/><line stroke-width="1" x1="-99.439768126135" y1="-66.37514431588333" x2="-119.42622765051507" y2="-152.22358573312175"/><line stroke-width="1" x1="-44.97821475148521" y1="66.62263374481965" x2="-102.36739364407373" y2="24.855079653277176"/></g><g fill="currentColor" stroke="#fff" stroke-opacity="1" stroke-width="1.5"><circle r="10" fill="#f28e2c" cx="-19.560867654525914" cy="-6.291794932869272"><title>QUI-GON
1</title></circle><circle r="7.2335260603626415" fill="#e15759" cx="-56.166558831521606" cy="26.758689670209815"><title>NUTE_GUNRAY
1</title></circle><circle r="5" fill="#e15759" cx="118.00733256426244" cy="35.18362021723918"><title>PK-4
1</title></circle><circle r="5.462578393057977" fill="#e15759" cx="163.3311919563637" cy="47.382869310832966"><title>TC-14
1</title></circle><circle r="8.41954984285402" fill="#76b7b2" cx="-58.277233409365564" cy="-100.90508797664964"><title>OBI-WAN
1</title></circle><circle r="5.250986763592982" fill="#e15759" cx="57.93108658159201" cy="-39.651675773156995"><title>DOFINE
1</title></circle><circle r="6.380395020062762" fill="#e15759" cx="-71.81640338584766" cy="118.91045982733519"><title>RUNE
1</title></circle><circle r="5.462578393057977" fill="#e15759" cx="156.7214217362972" cy="19.637791350580095"><title>TEY_HOW
1</title></circle><circle r="6.73043521129546" fill="#59a14f" cx="-44.97821475148521" cy="66.62263374481965"><title>EMPEROR
1</title></circle><circle r="7.325331800442579" fill="#e15759" cx="-135.8158225509708" cy="1.4156611528931675"><title>CAPTAIN_PANAKA
1</title></circle><circle r="5.972509290395673" fill="#e15759" cx="178.92812913540064" cy="20.819371013415076"><title>SIO_BIBBLE
1</title></circle><circle r="8.554991902137573" fill="#edc949" cx="28.305153646667005" cy="84.78499919541616"><title>JAR_JAR
1</title></circle><circle r="5.250986763592982" fill="#e15759" cx="162.99422067422825" cy="136.57854384272153"><title>TARPALS
1</title></circle><circle r="5.462578393057977" fill="#e15759" cx="-85.19654635021384" cy="-41.98889552396875"><title>BOSS_NASS
1</title></circle><circle r="8.208441587371066" fill="#af7aa1" cx="-102.36739364407373" cy="24.855079653277176"><title>PADME
1</title></circle><circle r="6.502278428193996" fill="#e15759" cx="120.31231664571301" cy="-62.880491348152894"><title>RIC_OLIE
1</title></circle><circle r="5.972509290395673" fill="#e15759" cx="155.71500766351758" cy="71.40101114558716"><title>WATTO
1</title></circle><circle r="8.877553070306845" fill="#ff9da7" cx="-99.439768126135" cy="-66.37514431588333"><title>ANAKIN
1</title></circle><circle r="5.250986763592982" fill="#e15759" cx="-21.706741084798768" cy="-155.6300081871466"><title>SEBULBA
1</title></circle><circle r="5.250986763592982" fill="#e15759" cx="-150.75191137414282" cy="60.54318082997318"><title>JIRA
1</title></circle><circle r="6.380395020062762" fill="#e15759" cx="154.47476084024245" cy="-113.7662981422659"><title>SHMI
1</title></circle><circle r="5.648994360840847" fill="#9c755f" cx="6.166648758821651" cy="-21.49916842216878"><title>C-3PO
1</title></circle><circle r="5.648994360840847" fill="#e15759" cx="-174.5324630045724" cy="104.75737362755153"><title>DARTH_MAUL
1</title></circle><circle r="5.462578393057977" fill="#e15759" cx="1.9077183715012613" cy="-76.21741551678093"><title>KITSTER
1</title></circle><circle r="5.250986763592982" fill="#e15759" cx="129.74727744654524" cy="118.58923536970318"><title>WALD
1</title></circle><circle r="6.502278428193996" fill="#e15759" cx="-132.2327880081245" cy="-53.36165044791258"><title>FODE/BEED
1</title></circle><circle r="5.250986763592982" fill="#e15759" cx="18.583380775300952" cy="-110.58487259818048"><title>JABBA
1</title></circle><circle r="5" fill="#e15759" cx="-92.01591471286415" cy="119.12861698041813"><title>GREEDO
1</title></circle><circle r="5.250986763592982" fill="#e15759" cx="166.75767577126925" cy="-55.7155718421008"><title>VALORUM
1</title></circle><circle r="5.648994360840847" fill="#e15759" cx="-16.601933911029953" cy="40.70610223089231"><title>MACE_WINDU
1</title></circle><circle r="5.462578393057977" fill="#e15759" cx="-193.08855801142883" cy="-19.309062259472462"><title>KI-ADI-MUNDI
1</title></circle><circle r="5.817527278107302" fill="#bab0ab" cx="151.114130693076" cy="-31.035984655468535"><title>YODA
1</title></circle><circle r="5" fill="#e15759" cx="-41.0109217954552" cy="114.50070255134774"><title>RABE
1</title></circle><circle r="5" fill="#e15759" cx="-6.412082629776109" cy="-109.56683855272088"><title>BAIL_ORGANA
1</title></circle><circle r="5.462578393057977" fill="#e15759" cx="19.287539780935916" cy="63.81344975924128"><title>GENERAL_CEEL
1</title></circle><circle r="5.648994360840847" fill="#e15759" cx="-167.79650719262025" cy="-58.85065917242368"><title>BRAVO_TWO
1</title></circle><circle r="5.250986763592982" fill="#e15759" cx="-119.42622765051507" cy="-152.22358573312175"><title>BRAVO_THREE
1</title></circle></g><text font-family="sans-serif" dx="12" dy="0.35em" style="font-size: 18pt; fill: rgb(51, 51, 51);" x="0.43913234547408564" y="-6.291794932869272">QUI-GON</text><text font-family="sans-serif" dx="12" dy="0.35em" style="font-size: 9.06897pt; fill: rgb(51, 51, 51);" x="-56.166558831521606" y="26.758689670209815">NUTE_GUNRAY</text><text font-family="sans-serif" dx="12" dy="0.35em" style="font-size: 5.2069pt; fill: rgb(51, 51, 51);" x="118.00733256426244" y="35.18362021723918">PK-4</text><text font-family="sans-serif" dx="12" dy="0.35em" style="font-size: 5.68966pt; fill: rgb(51, 51, 51);" x="163.3311919563637" y="47.382869310832966">TC-14</text><text font-family="sans-serif" dx="12" dy="0.35em" style="font-size: 13.8966pt; fill: rgb(51, 51, 51);" x="-48.277233409365564" y="-100.90508797664964">OBI-WAN</text><text font-family="sans-serif" dx="12" dy="0.35em" style="font-size: 5.44828pt; fill: rgb(51, 51, 51);" x="57.93108658159201" y="-39.651675773156995">DOFINE</text><text font-family="sans-serif" dx="12" dy="0.35em" style="font-size: 7.13793pt; fill: rgb(51, 51, 51);" x="-71.81640338584766" y="118.91045982733519">RUNE</text><text font-family="sans-serif" dx="12" dy="0.35em" style="font-size: 5.68966pt; fill: rgb(51, 51, 51);" x="156.7214217362972" y="19.637791350580095">TEY_HOW</text><text font-family="sans-serif" dx="12" dy="0.35em" style="font-size: 7.86207pt; fill: rgb(51, 51, 51);" x="-44.97821475148521" y="66.62263374481965">EMPEROR</text><text font-family="sans-serif" dx="12" dy="0.35em" style="font-size: 9.31034pt; fill: rgb(51, 51, 51);" x="-135.8158225509708" y="1.4156611528931675">CAPTAIN_PANAKA</text><text font-family="sans-serif" dx="12" dy="0.35em" style="font-size: 6.41379pt; fill: rgb(51, 51, 51);" x="178.92812913540064" y="20.819371013415076">SIO_BIBBLE</text><text font-family="sans-serif" dx="12" dy="0.35em" style="font-size: 14.3793pt; fill: rgb(51, 51, 51);" x="38.30515364666701" y="84.78499919541616">JAR_JAR</text><text font-family="sans-serif" dx="12" dy="0.35em" style="font-size: 5.44828pt; fill: rgb(51, 51, 51);" x="162.99422067422825" y="136.57854384272153">TARPALS</text><text font-family="sans-serif" dx="12" dy="0.35em" style="font-size: 5.68966pt; fill: rgb(51, 51, 51);" x="-85.19654635021384" y="-41.98889552396875">BOSS_NASS</text><text font-family="sans-serif" dx="12" dy="0.35em" style="font-size: 13.1724pt; fill: rgb(51, 51, 51);" x="-92.36739364407373" y="24.855079653277176">PADME</text><text font-family="sans-serif" dx="12" dy="0.35em" style="font-size: 7.37931pt; fill: rgb(51, 51, 51);" x="120.31231664571301" y="-62.880491348152894">RIC_OLIE</text><text font-family="sans-serif" dx="12" dy="0.35em" style="font-size: 6.41379pt; fill: rgb(51, 51, 51);" x="155.71500766351758" y="71.40101114558716">WATTO</text><text font-family="sans-serif" dx="12" dy="0.35em" style="font-size: 15.5862pt; fill: rgb(51, 51, 51);" x="-89.439768126135" y="-66.37514431588333">ANAKIN</text><text font-family="sans-serif" dx="12" dy="0.35em" style="font-size: 5.44828pt; fill: rgb(51, 51, 51);" x="-21.706741084798768" y="-155.6300081871466">SEBULBA</text><text font-family="sans-serif" dx="12" dy="0.35em" style="font-size: 5.44828pt; fill: rgb(51, 51, 51);" x="-150.75191137414282" y="60.54318082997318">JIRA</text><text font-family="sans-serif" dx="12" dy="0.35em" style="font-size: 7.13793pt; fill: rgb(51, 51, 51);" x="154.47476084024245" y="-113.7662981422659">SHMI</text><text font-family="sans-serif" dx="12" dy="0.35em" style="font-size: 5.93103pt; fill: rgb(51, 51, 51);" x="6.166648758821651" y="-21.49916842216878">C-3PO</text><text font-family="sans-serif" dx="12" dy="0.35em" style="font-size: 5.93103pt; fill: rgb(51, 51, 51);" x="-174.5324630045724" y="104.75737362755153">DARTH_MAUL</text><text font-family="sans-serif" dx="12" dy="0.35em" style="font-size: 5.68966pt; fill: rgb(51, 51, 51);" x="1.9077183715012613" y="-76.21741551678093">KITSTER</text><text font-family="sans-serif" dx="12" dy="0.35em" style="font-size: 5.44828pt; fill: rgb(51, 51, 51);" x="129.74727744654524" y="118.58923536970318">WALD</text><text font-family="sans-serif" dx="12" dy="0.35em" style="font-size: 7.37931pt; fill: rgb(51, 51, 51);" x="-132.2327880081245" y="-53.36165044791258">FODE/BEED</text><text font-family="sans-serif" dx="12" dy="0.35em" style="font-size: 5.44828pt; fill: rgb(51, 51, 51);" x="18.583380775300952" y="-110.58487259818048">JABBA</text><text font-family="sans-serif" dx="12" dy="0.35em" style="font-size: 5.2069pt; fill: rgb(51, 51, 51);" x="-92.01591471286415" y="119.12861698041813">GREEDO</text><text font-family="sans-serif" dx="12" dy="0.35em" style="font-size: 5.44828pt; fill: rgb(51, 51, 51);" x="166.75767577126925" y="-55.7155718421008">VALORUM</text><text font-family="sans-serif" dx="12" dy="0.35em" style="font-size: 5.93103pt; fill: rgb(51, 51, 51);" x="-16.601933911029953" y="40.70610223089231">MACE_WINDU</text><text font-family="sans-serif" dx="12" dy="0.35em" style="font-size: 5.68966pt; fill: rgb(51, 51, 51);" x="-193.08855801142883" y="-19.309062259472462">KI-ADI-MUNDI</text><text font-family="sans-serif" dx="12" dy="0.35em" style="font-size: 6.17241pt; fill: rgb(51, 51, 51);" x="151.114130693076" y="-31.035984655468535">YODA</text><text font-family="sans-serif" dx="12" dy="0.35em" style="font-size: 5.2069pt; fill: rgb(51, 51, 51);" x="-41.0109217954552" y="114.50070255134774">RABE</text><text font-family="sans-serif" dx="12" dy="0.35em" style="font-size: 5.2069pt; fill: rgb(51, 51, 51);" x="-6.412082629776109" y="-109.56683855272088">BAIL_ORGANA</text><text font-family="sans-serif" dx="12" dy="0.35em" style="font-size: 5.68966pt; fill: rgb(51, 51, 51);" x="19.287539780935916" y="63.81344975924128">GENERAL_CEEL</text><text font-family="sans-serif" dx="12" dy="0.35em" style="font-size: 5.93103pt; fill: rgb(51, 51, 51);" x="-167.79650719262025" y="-58.85065917242368">BRAVO_TWO</text><text font-family="sans-serif" dx="12" dy="0.35em" style="font-size: 5.44828pt; fill: rgb(51, 51, 51);" x="-119.42622765051507" y="-152.22358573312175">BRAVO_THREE</text></svg>